HIERARCHY
ROOT root
{
	OFFSET 0.000000 0.000000 0.000000
	CHANNELS 6 Xposition Yposition Zposition Zrotation Yrotation Xrotation
	JOINT lhip
	{
		OFFSET 0.058581 -0.082280 -0.017664
		CHANNELS 3 Zrotation Yrotation Xrotation
		JOINT lknee
		{
			OFFSET 0.043451 -0.386469 0.008037
			CHANNELS 3 Zrotation Yrotation Xrotation
			JOINT lankle
			{
				OFFSET -0.014790 -0.426874 -0.037428
				CHANNELS 3 Zrotation Yrotation Xrotation
				JOINT ltoe
				{
					OFFSET 0.041054 -0.060286 0.122042
					CHANNELS 3 Zrotation Yrotation Xrotation
					End Site
					{
						OFFSET 0.000000 0.000000 0.000000
					}
				}
			}
		}
	}
	JOINT rhip
	{
		OFFSET -0.060310 -0.090513 -0.013543
		CHANNELS 3 Zrotation Yrotation Xrotation
		JOINT rknee
		{
			OFFSET -0.043257 -0.383688 -0.004843
			CHANNELS 3 Zrotation Yrotation Xrotation
			JOINT rankle
			{
				OFFSET 0.019056 -0.420046 -0.034562
				CHANNELS 3 Zrotation Yrotation Xrotation
				JOINT rtoe
				{
					OFFSET -0.034840 -0.062106 0.130323
					CHANNELS 3 Zrotation Yrotation Xrotation
					End Site
					{
						OFFSET 0.000000 0.000000 0.000000
					}
				}
			}
		}
	}
	JOINT lowerback
	{
		OFFSET 0.004439 0.124404 -0.038385
		CHANNELS 3 Zrotation Yrotation Xrotation
		JOINT upperback
		{
			OFFSET 0.004488 0.137956 0.026820
			CHANNELS 3 Zrotation Yrotation Xrotation
			JOINT chest
			{
				OFFSET -0.002265 0.056032 0.002855
				CHANNELS 3 Zrotation Yrotation Xrotation
				JOINT lowerneck
				{
					OFFSET -0.013390 0.211636 -0.033468
					CHANNELS 3 Zrotation Yrotation Xrotation
					JOINT upperneck
					{
						OFFSET 0.010113 0.088937 0.050410
						CHANNELS 3 Zrotation Yrotation Xrotation
						End Site
						{
							OFFSET 0.000000 0.000000 0.000000
						}
					}
				}
				JOINT lclavicle
				{
					OFFSET 0.071702 0.114000 -0.018898
					CHANNELS 3 Zrotation Yrotation Xrotation
					JOINT lshoulder
					{
						OFFSET 0.122921 0.045205 -0.019046
						CHANNELS 3 Zrotation Yrotation Xrotation
						JOINT lelbow
						{
							OFFSET 0.255332 -0.015649 -0.022946
							CHANNELS 3 Zrotation Yrotation Xrotation
							JOINT lwrist
							{
								OFFSET 0.265709 0.012698 -0.007375
								CHANNELS 3 Zrotation Yrotation Xrotation
								End Site
								{
									OFFSET 0.000000 0.000000 0.000000
								}
							}
						}
					}
				}
				JOINT rclavicle
				{
					OFFSET -0.082954 0.112472 -0.023707
					CHANNELS 3 Zrotation Yrotation Xrotation
					JOINT rshoulder
					{
						OFFSET -0.113228 0.046853 -0.008472
						CHANNELS 3 Zrotation Yrotation Xrotation
						JOINT relbow
						{
							OFFSET -0.260127 -0.014369 -0.031269
							CHANNELS 3 Zrotation Yrotation Xrotation
							JOINT rwrist
							{
								OFFSET -0.269108 0.006794 -0.006027
								CHANNELS 3 Zrotation Yrotation Xrotation
								End Site
								{
									OFFSET 0.000000 0.000000 0.000000
								}
							}
						}
					}
				}
			}
		}
	}
}
MOTION
Frames: 16
Frame Time: 0.033333
-0.569454 -1.523186 0.892260 171.568175 -9.893628 93.158478 5.913230 6.227819 -2.730825 -10.413636 -5.509019 41.377257 -5.516920 -0.427321 -25.095313 0.000000 -0.000000 0.000000 -0.125453 2.138126 -43.605979 -3.861673 -8.919295 95.376844 0.095882 -10.639581 -10.782879 0.000000 -0.000000 0.000000 -4.872778 -10.898442 26.106390 3.942689 -6.460708 -1.404342 -0.733548 -9.722338 2.545099 2.215963 -3.496220 -13.163559 -0.352850 3.166913 -4.967508 -28.666152 -1.785339 1.778571 -56.269254 -2.916335 9.229292 60.024290 -77.273891 -42.649602 30.335764 -5.955237 -9.422071 17.371817 -3.474783 -10.757863 52.131900 -2.049182 4.346865 -99.512372 48.977090 -93.121616 -11.526735 7.562227 -19.482705 
-0.517044 -1.394452 0.908961 169.154861 -9.513140 97.413731 8.695063 4.521428 6.883458 -11.150939 -11.360752 29.327328 -7.774484 -1.269528 -9.336014 0.000000 -0.000000 0.000000 -3.440905 6.682484 -54.229289 -2.909716 -14.051601 78.448833 -0.169095 -9.134841 -9.448324 0.000000 -0.000000 0.000000 -4.565336 -14.418013 18.402949 4.471265 -5.622079 -0.638454 -1.395422 -10.900063 3.478771 1.413372 2.847864 -11.404556 -3.146439 3.508453 -4.477925 -25.690396 1.904933 2.438934 -53.161887 -3.356148 11.349093 99.815693 -82.316523 -80.865742 29.215789 -9.695554 -6.585737 18.607764 -6.718958 -9.598354 58.116137 1.117756 10.251521 -110.691190 51.956479 -100.084162 -14.187722 8.069322 -17.894357 
-0.466311 -1.260624 0.920446 166.317933 -8.946182 100.055803 8.769208 4.653315 16.082513 -4.629053 -12.947971 19.257776 -4.912288 7.664374 -3.337057 0.000000 -0.000000 0.000000 -4.152017 7.748942 -56.629977 1.880025 -15.624730 54.726135 -0.099869 -9.583798 -8.482983 0.000000 -0.000000 0.000000 -2.793670 -16.951538 13.107637 4.666852 -4.893717 -1.398294 -1.276511 -11.389179 4.531929 -0.449249 4.148992 -9.261902 -5.202172 7.167687 -4.521084 -24.346622 5.769793 5.066669 -51.425942 -1.878238 12.240981 161.862959 -82.175354 -142.535236 33.920178 -8.902686 -9.261260 19.311511 -8.439141 -7.570280 61.476573 2.961661 15.891901 -126.357918 55.683054 -110.559766 -19.195363 10.513520 -9.241717 
-0.405337 -1.097794 0.920078 162.157494 -9.870653 100.836580 5.510090 3.695338 21.892130 -2.602874 -8.510896 25.928762 -2.579149 11.605118 -5.569273 0.000000 -0.000000 0.000000 -2.294895 6.349014 -51.965391 4.609565 -14.641490 25.720437 -0.296160 -9.551069 -4.923425 0.000000 -0.000000 0.000000 -3.349427 -15.279244 10.783866 5.696792 -5.511460 -1.651195 -0.034677 -11.390123 5.520528 -1.352250 6.335988 -9.275028 -7.115538 8.767870 -3.767572 -22.543926 9.029514 7.873322 -53.191396 1.601045 13.636095 -166.876467 -79.491158 -174.790031 33.794165 -8.879758 -12.401838 21.953741 -7.722203 -6.672213 58.496082 7.266450 23.014818 -149.426222 60.612056 -126.469984 -20.054121 16.472034 7.565400 
-0.368375 -1.002647 0.912382 159.131111 -9.987980 101.542259 4.614451 4.623737 21.723494 -6.138341 -8.149106 36.117070 -3.962431 9.101130 -6.989351 0.000000 -0.000000 0.000000 0.763428 5.093170 -49.662300 4.303899 -15.315603 17.092711 0.139235 -8.986567 0.047647 0.000000 -0.000000 0.000000 -3.515451 -13.330210 9.700367 6.053586 -4.929718 -0.983173 1.111418 -10.497078 5.569322 -1.336495 6.617723 -11.070596 -8.031685 8.486733 -2.012854 -22.757797 9.092187 8.630116 -54.451464 4.364180 14.563008 -150.313772 -80.638716 168.330184 33.261068 -9.165606 -12.138721 23.661278 -4.341028 -5.442845 54.339078 10.381589 25.200143 -158.720525 65.078267 -133.615759 -20.088643 20.295840 15.437787 
-0.320600 -0.875377 0.896319 154.614654 -8.718474 101.502086 6.255595 7.257123 17.625266 -6.702101 0.048478 55.734090 -5.501217 8.788169 -6.776573 0.000000 -0.000000 0.000000 4.383821 5.131204 -46.297223 4.291090 -16.139050 18.744317 -5.039716 -8.501051 4.203627 0.000000 -0.000000 0.000000 -1.913402 -10.659967 9.109738 5.761379 -2.093220 1.495478 1.976805 -7.341902 4.303791 -1.555592 2.989458 -12.199413 -6.812502 7.949173 -2.340631 -24.843612 6.021900 9.501791 -56.648552 6.805794 14.136206 -106.653244 -83.565655 125.544903 30.461767 -9.088096 -11.546350 24.371767 1.493710 -1.005386 51.252040 13.649299 21.669199 -155.754808 73.815103 -129.007841 -18.444166 20.985998 19.396026 
-0.273071 -0.753045 0.876941 151.902476 -8.057240 100.810413 7.858255 6.841996 10.327036 -2.529792 7.036073 75.950145 -0.443289 14.353774 -8.368773 0.000000 -0.000000 0.000000 6.095053 6.047249 -44.671367 4.551833 -15.931870 35.087633 -15.827901 -14.474370 -14.560010 0.000000 -0.000000 0.000000 -0.202323 -7.627809 9.387898 5.103713 2.042092 2.569189 1.327214 -4.373439 3.690236 -0.458063 -0.784027 -12.951254 -5.613723 4.870531 -1.317346 -28.000422 1.988599 8.764187 -56.998196 5.977228 15.436508 -39.122584 -82.522326 60.404928 29.006695 -6.187510 -11.888597 26.621767 6.384321 1.025795 48.612415 15.377859 16.910082 -72.779012 81.795870 -46.715599 -11.362242 16.045315 17.283472 
-0.219222 -0.639312 0.872493 149.861862 -7.210610 98.304635 8.637561 4.904214 0.503044 -3.432861 7.534102 91.640265 1.574141 14.868168 -10.401181 0.000000 -0.000000 0.000000 8.077802 5.673801 -36.577233 1.789639 -15.937304 45.367528 -14.418883 -13.461389 -26.420692 0.000000 -0.000000 0.000000 0.723184 -4.471519 11.350012 4.133121 3.838381 5.385967 -0.017294 -1.540842 2.225069 3.538895 -0.882088 -14.187905 -6.406571 -0.914301 1.887199 -32.634439 -0.189265 6.697762 -55.137450 3.792676 17.016282 1.616486 -79.896820 24.819531 23.175148 -3.749522 -10.380702 30.852919 13.568760 1.235472 44.356876 21.064715 14.564648 -16.582550 55.095268 10.027583 -11.694311 12.648066 17.962649 
-0.157735 -0.524867 0.886008 151.528231 -8.283060 94.716984 6.679009 -0.568295 -10.719472 -7.216137 6.831055 96.680723 1.399340 11.783643 -11.250769 0.000000 -0.000000 0.000000 8.253055 0.687961 -20.786452 2.671474 -13.662760 42.610000 -13.259481 -12.110035 -32.397644 0.000000 -0.000000 0.000000 0.301800 0.411338 14.780741 2.978459 3.316647 3.273002 0.266289 -0.036633 1.194906 4.783190 -5.290264 -12.220328 -4.380133 -6.707216 5.463669 -32.209124 -1.669941 6.072818 -57.754359 2.452320 19.694416 9.746186 -78.993157 18.957862 21.956785 -2.883599 -11.637711 28.282768 18.247949 1.917598 46.063521 20.130170 13.002591 -9.636186 30.984002 6.220916 -9.248030 8.623478 0.453490 
-0.070297 -0.379209 0.912966 154.129639 -12.488176 91.899862 2.528941 -8.348185 -22.614233 -4.086270 6.602095 86.177237 3.998046 12.868652 -12.260265 0.000000 -0.000000 0.000000 4.948161 -4.852475 -1.582294 3.305465 -6.847348 34.310932 -6.393322 -9.427493 -26.064510 0.000000 -0.000000 0.000000 -4.292121 10.194351 14.948949 2.352833 1.391103 2.144173 1.167264 1.098463 2.031156 5.805613 -10.877233 -11.335140 0.132194 -16.275082 7.129719 -31.149252 -2.171448 5.130849 -58.100752 -0.747263 22.525621 -12.511727 -82.061621 41.153862 24.399863 -5.296205 -14.025158 30.968312 14.247269 2.877364 47.255082 11.362013 14.173780 -14.362017 33.754060 6.324958 -20.054286 15.063904 12.053192 
0.000133 -0.260916 0.936858 155.409467 -16.217500 91.297151 -0.788343 -14.496004 -27.586811 -0.881217 8.406558 66.429716 4.820938 12.604724 -11.752370 0.000000 -0.000000 0.000000 0.662160 -4.398618 9.473991 2.022726 -5.956614 29.123141 1.196020 -4.041555 -11.461281 0.000000 -0.000000 0.000000 -8.739517 14.510114 12.307303 1.468781 -0.314453 4.080899 0.723599 1.211692 0.962061 5.862432 -12.241002 -8.365847 2.377024 -20.153621 6.664675 -30.924574 -0.129592 6.391314 -58.630668 -2.993562 23.808448 7.267554 -82.896310 18.520237 25.019416 -9.802291 -11.044659 32.169934 9.297122 2.520622 53.041093 7.906770 16.736394 -15.739237 37.616051 -0.287869 -25.500693 18.447238 2.326014 
0.070004 -0.148671 0.950797 156.911953 -15.849456 93.521920 0.106469 -15.964340 -30.920747 -3.911458 3.876803 39.948010 1.622081 8.613793 -8.293883 0.000000 -0.000000 0.000000 2.241242 -5.373497 11.644678 -0.160741 -4.479343 30.617477 3.778410 -2.943112 -5.462631 0.000000 -0.000000 0.000000 -9.560095 13.859988 8.385704 0.310614 -1.358253 2.435032 -0.024870 1.594959 1.699955 4.984393 -12.228889 -5.568896 4.056220 -20.829671 6.890517 -30.574271 1.776276 5.843631 -60.317359 -2.720508 21.877420 23.374707 -79.897718 2.305324 28.257753 -10.159544 -8.171054 31.255797 7.230227 3.638257 58.767902 5.834697 16.286113 -17.002167 36.173422 2.551155 -29.386773 21.061179 4.557745 
0.138365 -0.038759 0.953388 157.662888 -12.817140 94.366258 1.540459 -13.103693 -28.569055 -5.011884 -4.591805 15.262097 -7.971691 3.317348 -2.325378 0.000000 -0.000000 0.000000 6.573076 -5.405321 10.193834 -1.678000 -5.833358 39.873755 3.159237 -3.683176 -6.987803 0.000000 -0.000000 0.000000 -6.760078 10.738398 7.417412 -0.556882 -0.100078 2.087125 -0.751869 2.425031 2.047698 4.581770 -11.640227 -6.528783 4.987830 -21.059421 6.787838 -31.847340 1.883895 4.033402 -59.849561 -2.217139 18.942530 38.711562 -76.352919 -11.293639 23.292909 -9.919379 -5.864033 30.213775 6.906675 4.078149 60.192996 4.052014 12.730170 -17.350108 35.183548 3.133456 -28.449869 20.111097 2.858781 
0.199643 0.067888 0.946103 159.460282 -11.614935 92.138109 -1.085004 -10.905601 -25.730750 -5.016402 -6.507636 9.857217 -6.856889 2.682002 0.402040 0.000000 -0.000000 0.000000 7.382489 -5.822249 5.751597 -3.934540 -9.072297 56.557290 0.805036 -7.837511 -8.422725 0.000000 -0.000000 0.000000 -4.791286 7.673417 12.490394 -1.224878 -0.169970 0.745537 -0.669420 1.697693 2.360993 4.168906 -13.080334 -8.633082 6.517112 -16.711654 3.788703 -32.206850 1.366365 3.027306 -58.433609 -2.392517 15.930977 61.097632 -74.481618 -34.499685 23.802184 -9.131618 -8.535452 27.417305 7.983925 2.729886 59.386590 2.280874 10.404202 -17.930325 34.319187 -1.496164 -25.653575 18.582832 3.668707 
0.262864 0.176451 0.928804 158.424941 -11.367082 89.765162 -2.241828 -13.187595 -22.995744 -6.141210 -5.857112 23.394620 4.214649 9.747197 -11.720155 0.000000 -0.000000 0.000000 4.722978 -4.173258 -0.893911 -5.542082 -10.980641 73.648377 -1.246032 -12.547513 -10.246439 0.000000 -0.000000 0.000000 -5.182295 6.053128 15.713621 -0.538729 0.211678 0.544508 -0.452147 1.241203 4.336480 4.108340 -11.706488 -10.476677 5.235517 -14.350295 1.200014 -29.264697 2.740254 2.600218 -56.318127 -3.835487 13.349488 86.297646 -74.608759 -63.565803 20.106064 -6.199726 -16.410002 25.598681 7.112376 1.038728 56.455004 1.536664 10.483527 -20.869825 35.000463 -8.937727 -24.064388 16.703173 3.468201 
0.329540 0.280579 0.923105 155.491130 -11.176061 88.814879 0.116108 -12.321942 -18.259845 -11.496553 -4.851003 32.875818 2.582794 11.703227 -18.581036 0.000000 -0.000000 0.000000 1.537456 -1.695663 -11.964602 -3.866459 -10.144057 84.631002 -2.040334 -11.705569 -11.389282 0.000000 -0.000000 0.000000 -6.279103 5.440207 17.654326 0.235563 2.181975 1.295249 0.209805 0.792736 5.117867 4.309780 -8.715789 -12.078276 3.770007 -13.968292 -0.520570 -27.521038 4.863385 2.027697 -52.170381 -5.016311 9.347394 105.999101 -69.916266 -85.313859 20.166325 -7.748115 -17.004664 25.944995 4.526477 0.583586 52.073690 1.222131 8.488496 -23.672719 36.178474 -14.475197 -23.033171 15.506234 4.249690 
